<svg xmlns="http://www.w3.org/2000/svg" width="1024" height="1024"><path d="M487.978 8c-38.09 3.438-73.652 15.895-104.841 36.723-34.841 23.267-61.366 53.782-79.776 91.777-17.967 37.079-25.259 73.918-23.211 117.25 4.326 91.525 63.648 173.547 148.35 205.117 12.251 4.566 30.804 9.652 38.896 10.663 2.913.364 5.817.984 6.454 1.377.869.537 1.094 37.875.903 150.225l-.253 149.511-58.726-55.33-58.727-55.33 3.411-6.242c8.586-15.709 16.539-39.828 20.196-61.241 2.447-14.328 2.443-47.156-.007-61.878-5.356-32.181-18.037-62.442-36.736-87.661-7.774-10.485-23.814-27.098-34.411-35.641-24.91-20.083-56.448-33.834-89.073-38.839-13.031-1.999-40.801-2.002-53.81-.006C72.602 382.898 4 464.329 4 561.5c0 67.756 33.479 129.625 89.801 165.954 9.574 6.175 29.338 15.591 40.98 19.523 26.562 8.971 62.35 11.787 89.361 7.031 31.445-5.537 61.89-19.305 86.063-38.918l8.706-7.064 77.942 73.237 77.941 73.237.353 70.677c.347 69.545.386 70.722 2.415 73.439 5.055 6.769 5.526 6.884 28.261 6.884 20.221 0 20.751-.053 24.04-2.399 6.247-4.455 6.137-3.271 6.137-66.341v-57.305l83.083-84.209 83.084-84.209 7.666 5.782c37.341 28.161 83.076 42.004 129.291 39.133 27.193-1.689 49.387-7.527 73.376-19.302 49.245-24.172 85.6-66.208 103.047-119.15 7.549-22.905 8.454-29.96 8.445-65.801-.007-29.284-.159-31.927-2.476-43.062-17.464-83.937-84.596-147.503-168.122-159.193-17.559-2.457-47.41-1.539-64.053 1.97-32.692 6.894-62.13 21.052-86.841 41.767-38.013 31.865-61.883 73.611-71.084 124.319-2.533 13.955-3.037 45.131-.991 61.208 3.621 28.443 13.594 57.097 28.72 82.513l2.215 3.721-5.918 6.279c-3.255 3.453-31.46 32.154-62.678 63.779l-56.759 57.5-.003-160.705L536 471.091l3.75-.639c74.506-12.683 135.746-58.76 168.733-126.952 14.75-30.491 22.018-60.415 23.195-95.5 2.158-64.313-20.189-123.863-64.014-170.584C634.015 41.543 586.137 16.687 537 9.583 523.611 7.647 500.245 6.892 487.978 8" fill="undefined" fill-rule="evenodd"/></svg>